<svg xmlns="http://www.w3.org/2000/svg" version="1.1" xmlns:xlink="http://www.w3.org/1999/xlink" xmlns:svgjs="http://svgjs.dev/svgjs" width="1000" height="1000" viewBox="0 0 1000 1000"><rect width="1000" height="1000" fill="#ffffff"></rect><g transform="matrix(0.7,0,0,0.7,149.5757577355286,459.03057564989655)"><svg viewBox="0 0 396 47" data-background-color="#fafafa" preserveAspectRatio="xMidYMid meet" height="118" width="1000" xmlns="http://www.w3.org/2000/svg" xmlns:xlink="http://www.w3.org/1999/xlink"><g id="tight-bounds" transform="matrix(1,0,0,1,0.24000009038468306,-0.18809994606704095)"><svg viewBox="0 0 395.52 47.37619989213407" height="47.37619989213407" width="395.52"><g><svg viewBox="0 0 395.52 47.37619989213407" height="47.37619989213407" width="395.52"><g><svg viewBox="0 0 488.03065649520397 58.45731678703024" height="47.37619989213407" width="395.52"><g transform="matrix(1,0,0,1,92.510656495204,1.0292774060427519)"><svg viewBox="0 0 395.52 56.39876197494473" height="56.39876197494473" width="395.52"><g id="textblocktransform"><svg viewBox="0 0 395.52 56.39876197494473" height="56.39876197494473" width="395.52" id="textblock"><g><svg viewBox="0 0 395.52 56.39876197494473" height="56.39876197494473" width="395.52"><g transform="matrix(1,0,0,1,0,0)"><svg width="395.52" viewBox="-1 -38 271.3800048828125 38.70000076293945" height="56.39876197494473" data-palette-color="#130912"><path d="M28.45-2Q28.8-0.7 30.25-0.7L30.25-0.7Q31.2-0.7 32.75-1.25L32.75-1.25 32.75 0 20.7 0 20.7-1.25Q22.15-0.75 23.2-0.75L23.2-0.75Q24.4-0.75 24.4-1.6L24.4-1.6Q24.4-1.85 24.35-2L24.35-2 19.85-16.25 9.25-16.25Q7.45-10.25 5.8-4.25L5.8-4.25 5.45-3Q5.35-2.7 5.35-2.25L5.35-2.25Q5.35-0.8 7.15-0.8L7.15-0.8Q8.15-0.8 9.45-1.25L9.45-1.25 9.45 0-1 0-1-1.25Q0.2-0.8 1.3-0.8L1.3-0.8Q2.8-0.8 3.45-2L3.45-2Q3.8-2.7 4.05-3.45L4.05-3.45 14.65-38 17.55-38 28.45-2ZM14.35-33.55L9.5-17.15 19.55-17.15 14.35-33.55ZM53.9-11.3L54.85-11.3Q54.15-10.65 53.92-9.25 53.7-7.85 53.7-5.1L53.7-5.1 53.7 0 33.75 0 33.75-1.25Q34.7-0.95 35.5-0.95L35.5-0.95Q36.45-0.95 36.97-1.48 37.5-2 37.5-3L37.5-3 37.5-34Q37.5-35 36.97-35.52 36.45-36.05 35.5-36.05L35.5-36.05Q34.7-36.05 33.75-35.75L33.75-35.75 33.75-37 45-37 45-35.75Q44.05-36.05 43.25-36.05L43.25-36.05Q42.3-36.05 41.77-35.52 41.25-35 41.25-34L41.25-34 41.25-6.25Q41.25-3.3 42.25-1.9 43.25-0.5 45.75-0.5L45.75-0.5Q48.55-0.5 49.95-1.28 51.35-2.05 51.8-3.23 52.25-4.4 52.55-6.55L52.55-6.55Q52.75-8.2 53-9.25 53.25-10.3 53.9-11.3L53.9-11.3ZM60.59-1.25Q61.59-0.95 62.3-0.95L62.3-0.95Q64.25-0.95 64.25-3L64.25-3 64.25-17.3 55.45-34Q54.89-35.05 54.22-35.58 53.55-36.1 52.59-36.1L52.59-36.1Q52.09-36.1 50.84-35.75L50.84-35.75 50.84-37 62.89-37 62.89-35.75Q61.7-36.1 61.05-36.1L61.05-36.1Q60.24-36.1 59.77-35.8 59.3-35.5 59.3-34.9L59.3-34.9Q59.3-34.45 59.55-34L59.55-34 67.55-18.5 75.5-32.75 76.09-33.9Q76.34-34.35 76.34-34.8L76.34-34.8Q76.34-35.45 75.69-35.8 75.05-36.15 74.05-36.15L74.05-36.15Q73.05-36.15 71.84-35.75L71.84-35.75 71.84-37 81.64-37 81.64-35.75Q80.75-36.05 80.05-36.05L80.05-36.05Q78.75-36.05 78.05-35L78.05-35Q75.75-31.25 72.25-24.7L72.25-24.7Q69.64-19.85 68.19-17.3L68.19-17.3 68.19-3Q68.19-0.95 70.14-0.95L70.14-0.95Q70.89-0.95 71.84-1.25L71.84-1.25 71.84 0 60.59 0 60.59-1.25ZM106.09-2Q106.44-0.7 107.89-0.7L107.89-0.7Q108.84-0.7 110.39-1.25L110.39-1.25 110.39 0 98.34 0 98.34-1.25Q99.79-0.75 100.84-0.75L100.84-0.75Q102.04-0.75 102.04-1.6L102.04-1.6Q102.04-1.85 101.99-2L101.99-2 97.49-16.25 86.89-16.25Q85.09-10.25 83.44-4.25L83.44-4.25 83.09-3Q82.99-2.7 82.99-2.25L82.99-2.25Q82.99-0.8 84.79-0.8L84.79-0.8Q85.79-0.8 87.09-1.25L87.09-1.25 87.09 0 76.64 0 76.64-1.25Q77.84-0.8 78.94-0.8L78.94-0.8Q80.44-0.8 81.09-2L81.09-2Q81.44-2.7 81.69-3.45L81.69-3.45 92.29-38 95.19-38 106.09-2ZM91.99-33.55L87.14-17.15 97.19-17.15 91.99-33.55ZM140.29-0.9Q138.54 0.7 135.39 0.7L135.39 0.7Q133.39 0.7 132.41-0.43 131.44-1.55 131.12-3.23 130.79-4.9 130.59-7.85L130.59-7.85Q130.34-11.6 129.81-13.9 129.29-16.2 127.52-17.82 125.74-19.45 122.09-19.45L122.09-19.45 120.49-19.45 120.49-20.15Q125.19-20.15 127.77-20.98 130.34-21.8 131.41-23.6 132.49-25.4 132.49-28.6L132.49-28.6Q132.49-31.9 130.01-34.2 127.54-36.5 122.04-36.5L122.04-36.5Q120.54-36.5 118.94-36.1L118.94-36.1 118.89-3Q118.89-0.95 120.84-0.95L120.84-0.95Q121.59-0.95 122.54-1.25L122.54-1.25 122.54 0 111.39 0 111.39-1.25Q112.34-0.95 113.14-0.95L113.14-0.95Q114.09-0.95 114.61-1.48 115.14-2 115.14-3L115.14-3 115.14-34Q115.14-35 114.61-35.52 114.09-36.05 113.14-36.05L113.14-36.05Q112.34-36.05 111.39-35.75L111.39-35.75 111.39-37 124.24-37Q129.59-37 133.14-34.85 136.69-32.7 136.69-28.2L136.69-28.2Q136.69-26.1 135.69-24.25 134.69-22.4 132.62-21.18 130.54-19.95 127.49-19.75L127.49-19.75Q130.39-19.75 131.84-18.18 133.29-16.6 133.79-14.38 134.29-12.15 134.54-8.6L134.54-8.6Q134.79-5.05 135.26-3.23 135.74-1.4 137.19-0.85L137.19-0.85Q137.59-0.7 138.04-0.7L138.04-0.7Q139.09-0.7 140.29-1.65L140.29-1.65 140.29-0.9ZM139.79-1.25Q140.14-1 140.89-1L140.89-1Q141.19-1 141.59-1.1L141.59-1.1Q141.94-1.2 142.26-1.75 142.59-2.3 143.14-3.45L143.14-3.45Q143.79-4.75 143.94-5L143.94-5 156.94-28.5Q157.44-29.4 157.69-29.75L157.69-29.75Q159.59-32.9 159.59-33.6L159.59-33.6Q159.59-34.95 158.66-35.58 157.74-36.2 156.36-36.35 154.99-36.5 152.49-36.5L152.49-36.5Q148.59-36.5 146.61-35.7 144.64-34.9 144.04-33.73 143.44-32.55 143.14-30.6L143.14-30.6Q142.84-28.75 142.34-27.75L142.34-27.75 141.54-27.75Q142.24-29.4 142.24-32.85L142.24-32.85Q142.24-34.6 142.09-35.55L142.09-35.55 141.94-37 167.19-37 167.19-35.75Q166.89-35.9 166.29-35.9L166.29-35.9Q165.39-35.9 165.04-35.55L165.04-35.55Q164.59-35.05 163.79-33.9 162.99-32.75 162.44-31.8L162.44-31.8 148.94-7.5Q147.29-4.45 147.29-3L147.29-3Q147.29-1.4 148.94-0.95 150.59-0.5 154.49-0.5L154.49-0.5Q158.74-0.5 160.99-1.6 163.24-2.7 164.09-4.3 164.94-5.9 165.59-8.6L165.59-8.6Q165.89-9.7 166.24-10.8 166.59-11.9 167.09-12.7L167.09-12.7 167.79-12.7Q167.09-12.1 166.86-10.13 166.64-8.15 166.64-5.1L166.64-5.1 166.64 0 139.79 0 139.79-1.25ZM200.63-2Q200.99-0.7 202.44-0.7L202.44-0.7Q203.38-0.7 204.94-1.25L204.94-1.25 204.94 0 192.88 0 192.88-1.25Q194.34-0.75 195.38-0.75L195.38-0.75Q196.59-0.75 196.59-1.6L196.59-1.6Q196.59-1.85 196.53-2L196.53-2 192.03-16.25 181.44-16.25Q179.63-10.25 177.99-4.25L177.99-4.25 177.63-3Q177.53-2.7 177.53-2.25L177.53-2.25Q177.53-0.8 179.34-0.8L179.34-0.8Q180.34-0.8 181.63-1.25L181.63-1.25 181.63 0 171.19 0 171.19-1.25Q172.38-0.8 173.49-0.8L173.49-0.8Q174.99-0.8 175.63-2L175.63-2Q175.99-2.7 176.24-3.45L176.24-3.45 186.84-38 189.74-38 200.63-2ZM186.53-33.55L181.69-17.15 191.74-17.15 186.53-33.55ZM205.93-1.25Q206.88-0.95 207.68-0.95L207.68-0.95Q208.63-0.95 209.16-1.48 209.68-2 209.68-3L209.68-3 209.68-34Q209.68-35 209.16-35.52 208.63-36.05 207.68-36.05L207.68-36.05Q206.88-36.05 205.93-35.75L205.93-35.75 205.93-37 221.38-37Q225.68-37 229.31-34.8 232.93-32.6 235.03-28.6 237.13-24.6 237.13-19.5L237.13-19.5Q237.13-14.35 235.01-9.85 232.88-5.35 229.26-2.68 225.63 0 221.38 0L221.38 0 205.93 0 205.93-1.25ZM220.28-0.85Q223.13-0.85 226.11-2.75 229.08-4.65 231.13-8.68 233.18-12.7 233.18-18.7L233.18-18.7Q233.18-23.35 231.41-27.38 229.63-31.4 226.66-33.8 223.68-36.2 220.28-36.2L220.28-36.2 215.78-36.2Q214.88-36.2 214.16-35.68 213.43-35.15 213.43-34L213.43-34 213.43-3Q213.43-1.85 214.16-1.35 214.88-0.85 215.78-0.85L215.78-0.85 220.28-0.85ZM266.08-2Q266.43-0.7 267.88-0.7L267.88-0.7Q268.83-0.7 270.38-1.25L270.38-1.25 270.38 0 258.33 0 258.33-1.25Q259.78-0.75 260.83-0.75L260.83-0.75Q262.03-0.75 262.03-1.6L262.03-1.6Q262.03-1.85 261.98-2L261.98-2 257.48-16.25 246.88-16.25Q245.08-10.25 243.43-4.25L243.43-4.25 243.08-3Q242.98-2.7 242.98-2.25L242.98-2.25Q242.98-0.8 244.78-0.8L244.78-0.8Q245.78-0.8 247.08-1.25L247.08-1.25 247.08 0 236.63 0 236.63-1.25Q237.83-0.8 238.93-0.8L238.93-0.8Q240.43-0.8 241.08-2L241.08-2Q241.43-2.7 241.68-3.45L241.68-3.45 252.28-38 255.18-38 266.08-2ZM251.98-33.55L247.13-17.15 257.18-17.15 251.98-33.55Z" opacity="1" transform="matrix(1,0,0,1,0,0)" fill="#000000" class="undefined-text-0" data-fill-palette-color="primary" id="text-0"></path></svg></g></svg></g></svg></g></svg></g><g><svg viewBox="0 0 79.19626236320696 58.45731678703024" height="58.45731678703024" width="79.19626236320696"><g><svg xmlns="http://www.w3.org/2000/svg" xmlns:xlink="http://www.w3.org/1999/xlink" version="1.1" x="0" y="0" viewBox="12.076000213623047 22.006500244140625 75.848876953125 55.98650360107422" enable-background="new 0 0 100 100" xml:space="preserve" height="58.45731678703024" width="79.19626236320696" class="icon-icon-0" data-fill-palette-color="accent" id="icon-0"><path d="M33.805 28.042c-0.607-0.561-1.558-0.522-2.12 0.087L12.472 48.984c-0.528 0.574-0.528 1.458 0 2.032l19.213 20.854c0.296 0.321 0.699 0.484 1.104 0.484 0.363 0 0.729-0.131 1.017-0.397 0.609-0.561 0.647-1.51 0.087-2.119L15.614 50l18.277-19.838C34.452 29.553 34.414 28.604 33.805 28.042zM87.528 48.984L68.315 28.129c-0.562-0.609-1.511-0.648-2.12-0.087s-0.647 1.51-0.087 2.119L84.386 50 66.108 69.838c-0.561 0.609-0.522 1.558 0.087 2.119 0.288 0.266 0.653 0.397 1.017 0.397 0.404 0 0.808-0.163 1.104-0.484l19.213-20.854C88.057 50.442 88.057 49.558 87.528 48.984zM61.053 22.112c-0.77-0.304-1.642 0.071-1.947 0.842l-21 52.986c-0.305 0.77 0.071 1.642 0.842 1.947 0.182 0.072 0.368 0.106 0.553 0.106 0.597 0 1.161-0.359 1.395-0.948l21-52.986C62.199 23.29 61.823 22.417 61.053 22.112z" fill="#000000" data-fill-palette-color="accent"></path></svg></g></svg></g></svg></g></svg></g><defs></defs></svg><rect width="395.52" height="47.37619989213407" fill="none" stroke="none" visibility="hidden"></rect></g></svg></g></svg>